<svg width="62" height="62" viewBox="0 0 62 62" fill="none" xmlns="http://www.w3.org/2000/svg">
<path fill-rule="evenodd" clip-rule="evenodd" d="M31.1297 8.43213C52.4107 8.43213 44.1167 43.6981 31.1297 43.6981C18.8637 43.6981 9.84872 8.43213 31.1297 8.43213Z" fill="#FFE8BE"/>
<path d="M30.8999 61.7998C47.9654 61.7998 61.7998 47.9654 61.7998 30.8999C61.7998 13.8344 47.9654 0 30.8999 0C13.8344 0 0 13.8344 0 30.8999C0 47.9654 13.8344 61.7998 30.8999 61.7998Z" fill="#58B0E0"/>
<path fill-rule="evenodd" clip-rule="evenodd" d="M45.4873 19.9868L16.3143 20.1618C16.3143 20.1618 17.3623 36.3098 13.6953 41.3718H49.3963C48.4763 40.0218 46.0433 39.5868 45.4873 19.9868Z" fill="#60350A"/>
<path fill-rule="evenodd" clip-rule="evenodd" d="M18.1348 45.5988L25.3408 42.4118L36.8908 42.1118L44.3108 46.0088L38.9538 57.2238L31.3408 61.3118L23.4658 56.9618L18.1348 45.5988Z" fill="#D5E1ED"/>
<path fill-rule="evenodd" clip-rule="evenodd" d="M24.7441 38.6802L37.6751 38.7642V47.7132L24.7441 47.6282V38.6802Z" fill="#F9DCA4"/>
<path opacity="0.11" fill-rule="evenodd" clip-rule="evenodd" d="M37.677 38.7781V42.3581C37.691 42.7672 37.6777 43.1768 37.637 43.5841C37.5767 44.0357 37.4719 44.4802 37.324 44.9111C32.954 49.0761 25.945 45.6911 24.834 38.5781L37.677 38.7781Z" fill="black"/>
<path fill-rule="evenodd" clip-rule="evenodd" d="M52.7968 52.701C49.9017 55.6092 46.4562 57.9116 42.6615 59.4737C38.8668 61.0358 34.7989 61.8262 30.6954 61.799C26.5918 61.7717 22.5348 60.9272 18.7612 59.3148C14.9876 57.7024 11.573 55.3545 8.7168 52.408L9.9378 49.31L19.0408 45.188C22.3028 51.168 25.8508 56.712 31.3578 60.643C36.3428 56.4936 40.3808 51.3242 43.1998 45.483L51.3438 49.336L52.7968 52.701Z" fill="#434955"/>
<path fill-rule="evenodd" clip-rule="evenodd" d="M19.1103 24.1831C16.1523 25.4731 18.6683 31.5931 20.5303 31.5661C19.7577 29.1722 19.2808 26.6928 19.1103 24.1831Z" fill="#F9DCA4"/>
<path fill-rule="evenodd" clip-rule="evenodd" d="M43.5069 24.1821C46.4669 25.4741 43.9499 31.5931 42.0879 31.5661C42.8604 29.1719 43.3369 26.6921 43.5069 24.1821Z" fill="#F9DCA4"/>
<path fill-rule="evenodd" clip-rule="evenodd" d="M31.1138 8.66602C39.8358 8.66602 43.4908 14.866 43.7148 22.033C44.0218 31.843 38.0398 43.463 31.1148 43.463C24.5548 43.463 18.4088 31.445 18.7818 21.535C19.0418 14.582 22.5958 8.66602 31.1138 8.66602Z" fill="#FFE8BE"/>
<path fill-rule="evenodd" clip-rule="evenodd" d="M33.3998 24.9831C34.9624 24.0285 36.819 23.6755 38.6228 23.9901H38.6278C43.7818 24.6201 43.8618 26.2221 43.3608 26.5911C43.0254 26.8682 42.7571 27.2176 42.5758 27.6131C42.4639 28.6572 42.1031 29.6592 41.5238 30.5351C41.1381 31.1393 40.631 31.6569 40.0347 32.0549C39.4384 32.4529 38.7659 32.7226 38.0598 32.8471C37.8918 32.8741 37.7198 32.8951 37.5438 32.9051C36.8558 32.9544 36.1658 32.8392 35.5311 32.5689C34.8964 32.2987 34.3352 31.8812 33.8938 31.3511C33.2555 30.6017 32.7551 29.7451 32.4158 28.8211V28.8241C32.4158 28.8241 31.6188 27.1881 30.3438 28.7101C30.0014 29.6749 29.4863 30.5695 28.8238 31.3501C28.3824 31.8804 27.821 32.2981 27.1861 32.5685C26.5513 32.8389 25.8611 32.9543 25.1728 32.9051C25 32.8943 24.8278 32.8749 24.6568 32.8471C23.9508 32.7226 23.2783 32.4528 22.682 32.0548C22.0857 31.6568 21.5786 31.1393 21.1928 30.5351C20.6138 29.6594 20.253 28.6578 20.1408 27.6141C19.9682 27.2172 19.7044 26.8667 19.3708 26.5911C18.8708 26.2211 18.9458 24.6181 24.0998 23.9881H24.1018C25.9132 23.6752 27.7765 24.0343 29.3418 24.9981L29.3408 24.9971L29.3438 24.9991L29.5588 25.1301C30.1583 25.4365 30.8264 25.5839 31.4992 25.558C32.1719 25.5321 32.8267 25.3337 33.4008 24.9821L33.3998 24.9831ZM28.7278 25.6211C27.7985 25.0843 26.7528 24.7809 25.6805 24.7368C24.6081 24.6927 23.5411 24.9093 22.5708 25.3681C21.0598 26.0541 20.5988 26.5381 21.1848 28.5311C21.3436 29.0747 21.5836 29.5912 21.8968 30.0631C22.2503 30.6382 22.7371 31.1198 23.316 31.467C23.8949 31.8143 24.549 32.017 25.2228 32.0581C25.7827 32.0966 26.3437 32.0013 26.8594 31.7802C27.3751 31.559 27.8308 31.2182 28.1888 30.7861C28.7817 30.0847 29.2425 29.2818 29.5488 28.4161C30.2278 26.6361 30.4108 26.5531 28.7288 25.6211H28.7278ZM39.6748 25.1711C38.7155 24.8107 37.6865 24.6742 36.6664 24.7722C35.6463 24.8701 34.6621 25.1998 33.7888 25.7361C32.2508 26.6471 32.5308 26.7991 33.2108 28.5261C33.5133 29.3509 33.9588 30.1159 34.5268 30.7861C34.8849 31.2184 35.3408 31.5592 35.8567 31.7804C36.3726 32.0016 36.9338 32.0968 37.4938 32.0581C37.6379 32.0494 37.7814 32.0334 37.9238 32.0101C38.515 31.9036 39.0776 31.6756 39.5761 31.3404C40.0746 31.0053 40.4981 30.5703 40.8198 30.0631C41.1154 29.6182 41.3458 29.1333 41.5038 28.6231C42.2058 26.3731 41.5798 25.8721 39.6758 25.1721L39.6748 25.1711Z" fill="#464449"/>
<path fill-rule="evenodd" clip-rule="evenodd" d="M17.89 25.6081C17.89 24.9701 18.874 24.7221 19.488 28.5511C19.9839 26.9871 20.3045 25.3729 20.444 23.7381C21.606 23.9631 22.722 26.5861 22.371 28.8861C25.537 28.1091 33.674 23.1991 36.32 16.5621C43.092 20.4631 43.055 28.6561 43.055 28.6561C43.055 28.6561 43.413 26.7561 43.613 25.1401C43.679 24.6021 43.906 24.4071 44.411 24.9271C48.073 17.3431 42.3 5.75013 31.297 5.57013C16.189 5.32413 14.267 21.6841 17.891 25.6091L17.89 25.6081Z" fill="#8A5C42"/>
<path fill-rule="evenodd" clip-rule="evenodd" d="M24.7655 42.4312C26.3455 44.7856 28.5975 46.6101 31.2285 47.6672L27.0205 53.8112L21.1035 44.0312L24.7655 42.4312Z" fill="white"/>
<path fill-rule="evenodd" clip-rule="evenodd" d="M37.6817 42.4312C36.1017 44.7856 33.8498 46.61 31.2188 47.6672L35.4278 53.8112L41.3808 44.1432L37.6817 42.4312Z" fill="white"/>
<path d="M31.2238 53.4012C31.6872 53.4012 32.0629 53.0256 32.0629 52.5622C32.0629 52.0988 31.6872 51.7231 31.2238 51.7231C30.7604 51.7231 30.3848 52.0988 30.3848 52.5622C30.3848 53.0256 30.7604 53.4012 31.2238 53.4012Z" fill="#434955"/>
<path d="M31.2238 57.1302C31.6872 57.1302 32.0629 56.7546 32.0629 56.2912C32.0629 55.8278 31.6872 55.4521 31.2238 55.4521C30.7604 55.4521 30.3848 55.8278 30.3848 56.2912C30.3848 56.7546 30.7604 57.1302 31.2238 57.1302Z" fill="#434955"/>
<path fill-rule="evenodd" clip-rule="evenodd" d="M41.9977 24.7368C43.7817 25.4488 43.7167 26.3178 43.3647 26.5778C43.0293 26.855 42.761 27.2043 42.5797 27.5998C42.5015 28.3224 42.3049 29.0272 41.9977 29.6858V24.7368ZM20.5287 29.2158C20.3334 28.6957 20.2044 28.1531 20.1447 27.6008C19.9722 27.2039 19.7083 26.8534 19.3747 26.5778C19.0377 26.3288 18.9617 25.5178 20.5287 24.8238V29.2158Z" fill="#464449"/>
</svg>
