<svg width="62" height="62" viewBox="0 0 62 62" fill="none" xmlns="http://www.w3.org/2000/svg">
<path d="M30.9 61.8C47.9656 61.8 61.8 47.9656 61.8 30.9C61.8 13.8344 47.9656 0 30.9 0C13.8344 0 0 13.8344 0 30.9C0 47.9656 13.8344 61.8 30.9 61.8Z" fill="#595BD4"/>
<path fill-rule="evenodd" clip-rule="evenodd" d="M23.2559 38.6802L39.1629 38.8012V51.7192L23.2559 51.5982V38.6802Z" fill="#F9D0A4"/>
<path fill-rule="evenodd" clip-rule="evenodd" d="M43.9719 58.905C39.9285 60.7881 35.526 61.7756 31.0657 61.7997C26.6054 61.8239 22.1925 60.8842 18.1289 59.045V48.417H43.9709L43.9719 58.905Z" fill="#53D86A"/>
<path fill-rule="evenodd" clip-rule="evenodd" d="M33.4039 61.6999C32.5785 61.7659 31.7442 61.7992 30.9009 61.7999C30.2642 61.7999 29.6325 61.7809 29.0059 61.7429L30.0359 52.7549H32.4459L33.4039 61.6999Z" fill="#FE9526"/>
<path fill-rule="evenodd" clip-rule="evenodd" d="M25.657 61.3318C22.25 60.6973 18.9599 59.5467 15.9 57.9198C12.9609 56.2843 10.3073 54.1819 8.04297 51.6948L9.32697 48.5948L23.252 42.3828C23.252 47.5948 24.963 55.8638 25.657 61.3318Z" fill="#676779"/>
<path opacity="0.11" fill-rule="evenodd" clip-rule="evenodd" d="M39.1652 38.7591V41.9901C34.4332 47.5171 25.3922 46.7351 23.3652 38.5781L39.1652 38.7591Z" fill="#167FFC"/>
<path fill-rule="evenodd" clip-rule="evenodd" d="M31.1281 8.43213C52.4091 8.43213 44.1151 43.6981 31.1281 43.6981C18.8611 43.6981 9.84709 8.43213 31.1281 8.43213Z" fill="#FFDFBE"/>
<path fill-rule="evenodd" clip-rule="evenodd" d="M18.3653 24.0459C15.2953 25.3849 17.9053 31.7319 19.8373 31.7039C19.0359 29.2206 18.5416 26.6494 18.3653 24.0459ZM44.1403 24.0449C47.2103 25.3839 44.6003 31.7319 42.6693 31.7029C43.4701 29.2198 43.9641 26.648 44.1403 24.0449Z" fill="#F9D0A4"/>
<path fill-rule="evenodd" clip-rule="evenodd" d="M21.9317 14.3278C18.5977 17.7858 19.7707 27.3578 19.7707 27.3578L18.7207 26.8628C12.1667 1.46877 50.3547 1.46777 43.7637 26.8628L42.7137 27.3578C42.7137 27.3578 43.8877 17.7858 40.5537 14.3278C36.4347 18.3228 26.0277 18.3018 21.9317 14.3278Z" fill="#444449"/>
<path fill-rule="evenodd" clip-rule="evenodd" d="M36.7676 61.2428C43.5249 59.9378 49.6522 56.4117 54.1756 51.2248L53.0856 48.5938L39.1616 42.3818C39.1616 47.5938 37.4616 55.7748 36.7676 61.2428Z" fill="#676779"/>
<path fill-rule="evenodd" clip-rule="evenodd" d="M39.1623 41.98L31.2363 48.445L37.8093 54.358C37.8093 54.358 39.5613 44.654 39.1623 41.98Z" fill="white"/>
<path fill-rule="evenodd" clip-rule="evenodd" d="M23.2535 41.98L31.2425 48.445L24.5975 54.358C24.5975 54.358 22.8515 44.654 23.2535 41.98Z" fill="white"/>
<path fill-rule="evenodd" clip-rule="evenodd" d="M28.1094 51.2272L31.2464 48.4092L34.3834 51.2272L31.2464 54.0442L28.1094 51.2272Z" fill="#FE9526"/>
<path fill-rule="evenodd" clip-rule="evenodd" d="M25.7679 61.3728C24.491 61.1591 23.2288 60.8652 21.9889 60.4928C21.9501 60.4629 21.912 60.4319 21.8749 60.3998L18.3399 54.0098L22.8809 50.7498H18.1289L19.1459 43.8988L23.2559 41.2998C23.4339 48.6698 25.0149 56.9558 25.7679 61.3728ZM36.6459 61.2658C37.2339 61.1678 37.8159 61.0318 38.3929 60.8818C39.0744 60.7014 39.7526 60.5084 40.4269 60.3028L40.5609 60.2598L44.0719 53.9448L39.5309 50.7028H44.2829L43.2659 43.8858L39.1559 41.2998C38.9779 48.6318 37.3979 56.8708 36.6459 61.2658Z" fill="#434355"/>
</svg>
