 <svg
          width="47"
          height="61"
          viewBox="0 0 47 61"
          fill="none"
          xmlns="http://www.w3.org/2000/svg"
        >
          <path
            id="Vector 2"
            d="M3.38086 0.855469V38.1397M3.38086 38.1397L23.7502 16.0708C24.0667 15.7279 24.225 15.5564 24.3622 15.5434C24.476 15.5326 24.5882 15.5764 24.6645 15.6616C24.7566 15.7642 24.7566 15.9975 24.7566 16.4642V38.1397M3.38086 38.1397H24.7566M24.7566 38.1397V56.7437C24.7566 57.1876 24.7566 57.4096 24.8457 57.5115C24.9196 57.5961 25.0288 57.6413 25.1409 57.6338C25.2759 57.6248 25.4329 57.4678 25.7468 57.1539L44.761 38.1397M24.7566 38.1397H32.9685"
            stroke="url(#paint0_linear_17512_21058)"
            stroke-width="5.40459"
          />
          <defs>
            <linearGradient
              id="paint0_linear_17512_21058"
              x1="3.38086"
              y1="0.855469"
              x2="57.7665"
              y2="40.1387"
              gradientUnits="userSpaceOnUse"
            >
              <stop stop-color="#89F7FE" />
              <stop offset="1" stop-color="#66A6FF" />
            </linearGradient>
          </defs>
        </svg>