<svg width="84" height="24" viewBox="0 0 84 24" fill="none" xmlns="http://www.w3.org/2000/svg">
  <path d="M7.35776 5.01594H0.263707V1.15777H18.3411V5.01594H11.2159V23H7.35776V5.01594ZM34.8523 13.5413L39.8929 23H35.5369L33.39 18.8929C33.0996 18.3951 32.7988 17.8558 32.4877 17.275C32.1973 16.6942 31.9069 16.1652 31.6165 15.6881C31.3261 15.2111 31.0253 14.8169 30.7141 14.5058C30.403 14.1739 30.0919 14.008 29.7807 14.008H27.2293C26.5241 14.008 25.9225 14.2569 25.4247 14.7547C24.9269 15.2525 24.678 15.8541 24.678 16.5593V23H20.8198V16.5593C20.8198 15.6674 20.9857 14.8377 21.3176 14.0702C21.6495 13.282 22.1059 12.5975 22.6867 12.0167C23.2675 11.4359 23.9416 10.9795 24.7091 10.6476C25.4973 10.3157 26.3374 10.1498 27.2293 10.1498H32.4254C32.9855 10.1498 33.4522 10.0253 33.8256 9.77643C34.2197 9.52751 34.5101 9.21637 34.6968 8.843C34.8835 8.44889 34.9768 8.03403 34.9768 7.59843C34.9768 7.14209 34.8835 6.72723 34.6968 6.35386C34.5101 5.95974 34.2197 5.63823 33.8256 5.38931C33.4522 5.1404 32.9855 5.01594 32.4254 5.01594H20.8198V1.15777H32.4254C33.587 1.15777 34.6034 1.40669 35.4746 1.90451C36.3666 2.3816 37.0822 3.00389 37.6215 3.77137C38.1608 4.53886 38.5238 5.39969 38.7105 6.35386C38.8972 7.30803 38.8765 8.24146 38.6483 9.15414C38.4409 10.0668 38.026 10.9173 37.4037 11.7055C36.7814 12.4937 35.931 13.1057 34.8523 13.5413ZM51.1779 0.939971C52.7128 0.939971 54.1545 1.23037 55.5027 1.81117C56.851 2.39197 58.0334 3.19057 59.0498 4.20697C60.0662 5.20263 60.8648 6.38497 61.4456 7.754C62.0264 9.10229 62.3168 10.5439 62.3168 12.0789C62.3168 13.6139 62.0264 15.0555 61.4456 16.4038C60.8648 17.7521 60.0662 18.9344 59.0498 19.9508C58.0334 20.9672 56.851 21.7658 55.5027 22.3466C54.1545 22.9274 52.7128 23.2178 51.1779 23.2178C49.6429 23.2178 48.1909 22.9274 46.8219 22.3466C45.4736 21.7658 44.2912 20.9672 43.2748 19.9508C42.2792 18.9344 41.4909 17.7521 40.9101 16.4038C40.3293 15.0555 40.0389 13.6139 40.0389 12.0789C40.0389 10.5439 40.3293 9.10229 40.9101 7.754C41.4909 6.38497 42.2792 5.20263 43.2748 4.20697C44.2912 3.19057 45.4736 2.39197 46.8219 1.81117C48.1909 1.23037 49.6429 0.939971 51.1779 0.939971ZM51.1779 19.3596C52.1735 19.3596 53.1069 19.1729 53.9781 18.7996C54.8701 18.4055 55.6479 17.8765 56.3117 17.2127C56.9755 16.5282 57.4941 15.7504 57.8674 14.8792C58.2615 13.9872 58.4586 13.0434 58.4586 12.0478C58.4586 11.0521 58.2615 10.1187 57.8674 9.24749C57.4941 8.35554 56.9755 7.58806 56.3117 6.94503C55.6479 6.28126 54.8701 5.76269 53.9781 5.38931C53.1069 4.9952 52.1735 4.79814 51.1779 4.79814C50.1822 4.79814 49.2384 4.9952 48.3465 5.38931C47.4753 5.76269 46.7078 6.28126 46.044 6.94503C45.3802 7.58806 44.8513 8.35554 44.4572 9.24749C44.0838 10.1187 43.8971 11.0521 43.8971 12.0478C43.8971 13.0434 44.0838 13.9872 44.4572 14.8792C44.8513 15.7504 45.3802 16.5282 46.044 17.2127C46.7078 17.8765 47.4753 18.4055 48.3465 18.7996C49.2384 19.1729 50.1822 19.3596 51.1779 19.3596ZM70.8047 13.9146C69.9542 13.7279 69.2075 13.3546 68.5644 12.7945C67.9421 12.2345 67.3925 11.6018 66.9154 10.8965C66.4383 10.1913 66.0234 9.4964 65.6708 8.81189C65.3389 8.10663 65.0485 7.52583 64.7996 7.06949L61.7193 1.18889H66.0753L68.2222 5.26486C68.5126 5.76269 68.803 6.302 69.0934 6.8828C69.3838 7.4636 69.6742 8.00291 69.9646 8.50074C70.2757 8.97783 70.5869 9.38231 70.898 9.7142C71.2091 10.0253 71.5203 10.1809 71.8314 10.1809C72.3293 10.1809 72.7337 10.1809 73.0449 10.1809C73.3768 10.1809 73.6568 10.1498 73.885 10.0876C74.1339 10.0253 74.3517 9.91126 74.5384 9.74531C74.7458 9.55863 74.9636 9.28897 75.1918 8.93634C75.4407 8.56297 75.7207 8.08589 76.0319 7.50509C76.3637 6.90354 76.7682 6.1568 77.2453 5.26486L79.3922 1.18889H83.7482L80.6679 7.06949C80.419 7.52583 80.1182 8.10663 79.7656 8.81189C79.4337 9.4964 79.0292 10.1913 78.5521 10.8965C78.075 11.6018 77.515 12.2345 76.8719 12.7945C76.2497 13.3546 75.5133 13.7279 74.6628 13.9146V23H70.8047V13.9146Z" fill="url(#paint0_linear_17667_7018)"/>
  <defs>
    <linearGradient id="paint0_linear_17667_7018" x1="-114" y1="-4" x2="-107.096" y2="61.2698" gradientUnits="userSpaceOnUse">
      <stop stop-color="#89F7FE"/>
      <stop offset="1" stop-color="#66A6FF"/>
    </linearGradient>
  </defs>
</svg>
